# xmcd
#
# Track frame offsets:
#	150
#	17947
#	38234
#	55318
#	68930
#	87306
#	101438
#	122101
#	138601
#	153174
#	165708
#	182678
#	198509
#
# Disc length: 2889 seconds
#
# Revision: 0
# Processed by: cddbd v1.4PL0 Copyright (c) Steve Scherf et al.
# Submitted via: dBpowerAMP V4.0
#
DISCID=b40b470d
DTITLE=Rambler - Starting Over
DYEAR=1900
DGENRE=
TTITLE0=Jonny's Gone
TTITLE1=I Ain't Drinkin' Any Less
TTITLE2=Do You Remember The Good Times
TTITLE3=It's Just Fine By Me
TTITLE4=Whiskey Songs
TTITLE5=A Bottle Of Wine and A Memory
TTITLE6=Same Old Feelin'
TTITLE7=Then There Was You
TTITLE8=Starting Over
TTITLE9=Drifter's Lamet
TTITLE10=You Don't Love Me Anymore
TTITLE11=Mexican Stripper
TTITLE12=No Words
EXTD=Rambler - Starting Over\nI never heard of them but a friend gave me the CD to try out! Thanks Karen
EXTT0=
EXTT1=
EXTT2=
EXTT3=
EXTT4=
EXTT5=
EXTT6=
EXTT7=
EXTT8=
EXTT9=
EXTT10=
EXTT11=
EXTT12=
PLAYORDER=
